<svg xmlns="http://www.w3.org/2000/svg" width="64" height="64" viewBox="0 0 48 48"><g fill="none"><path fill="url(#fluentColorOptions484)" d="M44 14.25c0 .69-.56 1.25-1.25 1.25H5.25a1.25 1.25 0 1 1 0-2.5h37.5c.69 0 1.25.56 1.25 1.25"/><path fill="url(#fluentColorOptions480)" d="M44 14.25c0 .69-.56 1.25-1.25 1.25H5.25a1.25 1.25 0 1 1 0-2.5h37.5c.69 0 1.25.56 1.25 1.25"/><path fill="url(#fluentColorOptions481)" d="M44 14.25c0 .69-.56 1.25-1.25 1.25H5.25a1.25 1.25 0 1 1 0-2.5h37.5c.69 0 1.25.56 1.25 1.25"/><path fill="url(#fluentColorOptions485)" d="M44 33.25c0 .69-.56 1.25-1.25 1.25H5.25a1.25 1.25 0 1 1 0-2.5h37.5c.69 0 1.25.56 1.25 1.25"/><path fill="url(#fluentColorOptions482)" d="M44 33.25c0 .69-.56 1.25-1.25 1.25H5.25a1.25 1.25 0 1 1 0-2.5h37.5c.69 0 1.25.56 1.25 1.25"/><path fill="url(#fluentColorOptions483)" d="M44 33.25c0 .69-.56 1.25-1.25 1.25H5.25a1.25 1.25 0 1 1 0-2.5h37.5c.69 0 1.25.56 1.25 1.25"/><circle cx="17" cy="33.25" r="6.25" fill="url(#fluentColorOptions486)"/><circle cx="31.25" cy="14.25" r="6.25" fill="url(#fluentColorOptions487)"/><defs><radialGradient id="fluentColorOptions480" cx="0" cy="0" r="1" gradientTransform="matrix(8 0 0 5.01508 31.5 14.5)" gradientUnits="userSpaceOnUse"><stop offset=".549" stop-color="#70777d"/><stop offset="1" stop-color="#70777d" stop-opacity="0"/></radialGradient><radialGradient id="fluentColorOptions481" cx="0" cy="0" r="1" gradientTransform="matrix(8.5 0 0 5.32852 17 33)" gradientUnits="userSpaceOnUse"><stop offset=".549" stop-color="#70777d"/><stop offset="1" stop-color="#70777d" stop-opacity="0"/></radialGradient><radialGradient id="fluentColorOptions482" cx="0" cy="0" r="1" gradientTransform="matrix(8 0 0 5.01508 31.5 14.5)" gradientUnits="userSpaceOnUse"><stop offset=".549" stop-color="#70777d"/><stop offset="1" stop-color="#70777d" stop-opacity="0"/></radialGradient><radialGradient id="fluentColorOptions483" cx="0" cy="0" r="1" gradientTransform="matrix(8.5 0 0 5.32852 17 33)" gradientUnits="userSpaceOnUse"><stop offset=".549" stop-color="#70777d"/><stop offset="1" stop-color="#70777d" stop-opacity="0"/></radialGradient><linearGradient id="fluentColorOptions484" x1="46.5" x2="29.305" y1="36.65" y2="-3.693" gradientUnits="userSpaceOnUse"><stop stop-color="#8c959b"/><stop offset="1" stop-color="#a3acb5"/></linearGradient><linearGradient id="fluentColorOptions485" x1="46.5" x2="29.305" y1="36.65" y2="-3.693" gradientUnits="userSpaceOnUse"><stop stop-color="#8c959b"/><stop offset="1" stop-color="#a3acb5"/></linearGradient><linearGradient id="fluentColorOptions486" x1="12" x2="22" y1="27" y2="39.5" gradientUnits="userSpaceOnUse"><stop stop-color="#29b4fb"/><stop offset="1" stop-color="#2764e7"/></linearGradient><linearGradient id="fluentColorOptions487" x1="26.25" x2="36.25" y1="8" y2="20.5" gradientUnits="userSpaceOnUse"><stop stop-color="#29b4fb"/><stop offset="1" stop-color="#2764e7"/></linearGradient></defs></g></svg>